<mxfile host="app.diagrams.net" modified="2023-09-23T07:33:38.444Z" agent="Mozilla/5.0 (Windows NT 10.0; Win64; x64) AppleWebKit/537.36 (KHTML, like Gecko) Chrome/116.0.0.0 Safari/537.36" etag="zwxkA4Sbx-Hl1TRuHaFV" version="21.8.0" type="device">
  <diagram name="Страница — 1" id="3EQYHNR3SPLNaawNuBC3">
    <mxGraphModel dx="2193" dy="752" grid="1" gridSize="10" guides="1" tooltips="1" connect="1" arrows="1" fold="1" page="1" pageScale="1" pageWidth="827" pageHeight="1169" math="0" shadow="0">
      <root>
        <mxCell id="0" />
        <mxCell id="1" parent="0" />
        <mxCell id="-rvg3PqeVG6ff2hM17AL-11" value="" style="endArrow=none;html=1;rounded=0;entryX=0;entryY=0.5;entryDx=0;entryDy=0;" parent="1" target="sFgRv1293873B7JfgZ-G-20" edge="1">
          <mxGeometry width="50" height="50" relative="1" as="geometry">
            <mxPoint x="60" y="250" as="sourcePoint" />
            <mxPoint x="100" y="540" as="targetPoint" />
          </mxGeometry>
        </mxCell>
        <mxCell id="-rvg3PqeVG6ff2hM17AL-9" value="" style="endArrow=none;html=1;rounded=0;entryX=0;entryY=0.5;entryDx=0;entryDy=0;" parent="1" target="sFgRv1293873B7JfgZ-G-18" edge="1">
          <mxGeometry width="50" height="50" relative="1" as="geometry">
            <mxPoint x="60" y="250" as="sourcePoint" />
            <mxPoint x="80" y="470" as="targetPoint" />
          </mxGeometry>
        </mxCell>
        <mxCell id="-rvg3PqeVG6ff2hM17AL-8" value="" style="endArrow=none;html=1;rounded=0;entryX=0;entryY=0.5;entryDx=0;entryDy=0;" parent="1" target="sFgRv1293873B7JfgZ-G-17" edge="1">
          <mxGeometry width="50" height="50" relative="1" as="geometry">
            <mxPoint x="60" y="250" as="sourcePoint" />
            <mxPoint x="90" y="370" as="targetPoint" />
          </mxGeometry>
        </mxCell>
        <mxCell id="-rvg3PqeVG6ff2hM17AL-7" value="" style="endArrow=none;html=1;rounded=0;entryX=0;entryY=0.5;entryDx=0;entryDy=0;" parent="1" target="sFgRv1293873B7JfgZ-G-16" edge="1">
          <mxGeometry width="50" height="50" relative="1" as="geometry">
            <mxPoint x="60" y="250" as="sourcePoint" />
            <mxPoint x="50" y="390" as="targetPoint" />
          </mxGeometry>
        </mxCell>
        <mxCell id="sFgRv1293873B7JfgZ-G-1" value="Пользователь&lt;br&gt;" style="shape=umlActor;verticalLabelPosition=bottom;verticalAlign=top;html=1;outlineConnect=0;" parent="1" vertex="1">
          <mxGeometry x="25" y="217.5" width="30" height="60" as="geometry" />
        </mxCell>
        <mxCell id="sFgRv1293873B7JfgZ-G-2" value="s" style="swimlane;whiteSpace=wrap;html=1;noLabel=0;separatorColor=none;startSize=20;" parent="1" vertex="1">
          <mxGeometry x="94" y="20" width="666" height="700" as="geometry" />
        </mxCell>
        <mxCell id="-rvg3PqeVG6ff2hM17AL-14" value="" style="endArrow=classic;html=1;rounded=0;dashed=1;exitX=1;exitY=0.5;exitDx=0;exitDy=0;entryX=0;entryY=0.5;entryDx=0;entryDy=0;" parent="sFgRv1293873B7JfgZ-G-2" source="sFgRv1293873B7JfgZ-G-15" target="4Jl0RKECZ87447bWKZPW-15" edge="1">
          <mxGeometry width="50" height="50" relative="1" as="geometry">
            <mxPoint x="336" y="80" as="sourcePoint" />
            <mxPoint x="336" y="160" as="targetPoint" />
          </mxGeometry>
        </mxCell>
        <mxCell id="rg-fWagQI2_gAXItH6_G-6" value="&quot;include&quot;" style="edgeLabel;html=1;align=center;verticalAlign=middle;resizable=0;points=[];" parent="-rvg3PqeVG6ff2hM17AL-14" vertex="1" connectable="0">
          <mxGeometry x="-0.2779" y="-1" relative="1" as="geometry">
            <mxPoint as="offset" />
          </mxGeometry>
        </mxCell>
        <mxCell id="-rvg3PqeVG6ff2hM17AL-6" value="" style="endArrow=none;html=1;rounded=0;entryX=0;entryY=0.5;entryDx=0;entryDy=0;" parent="sFgRv1293873B7JfgZ-G-2" target="sFgRv1293873B7JfgZ-G-15" edge="1">
          <mxGeometry width="50" height="50" relative="1" as="geometry">
            <mxPoint x="-35" y="230" as="sourcePoint" />
            <mxPoint x="195" y="80" as="targetPoint" />
          </mxGeometry>
        </mxCell>
        <mxCell id="sFgRv1293873B7JfgZ-G-15" value="Добавление фильма" style="ellipse;whiteSpace=wrap;html=1;" parent="sFgRv1293873B7JfgZ-G-2" vertex="1">
          <mxGeometry x="200" y="37.5" width="120" height="80" as="geometry" />
        </mxCell>
        <mxCell id="sFgRv1293873B7JfgZ-G-16" value="Удаление фильма" style="ellipse;whiteSpace=wrap;html=1;" parent="sFgRv1293873B7JfgZ-G-2" vertex="1">
          <mxGeometry x="190" y="160" width="120" height="80" as="geometry" />
        </mxCell>
        <mxCell id="sFgRv1293873B7JfgZ-G-17" value="Редактирование фильма" style="ellipse;whiteSpace=wrap;html=1;" parent="sFgRv1293873B7JfgZ-G-2" vertex="1">
          <mxGeometry x="190" y="260" width="120" height="80" as="geometry" />
        </mxCell>
        <mxCell id="sFgRv1293873B7JfgZ-G-18" value="Просмотр информации о фильме" style="ellipse;whiteSpace=wrap;html=1;" parent="sFgRv1293873B7JfgZ-G-2" vertex="1">
          <mxGeometry x="190" y="360" width="120" height="80" as="geometry" />
        </mxCell>
        <mxCell id="4Jl0RKECZ87447bWKZPW-12" value="Добавить имя" style="ellipse;whiteSpace=wrap;html=1;" parent="sFgRv1293873B7JfgZ-G-2" vertex="1">
          <mxGeometry x="414" y="30" width="86" height="65.5" as="geometry" />
        </mxCell>
        <mxCell id="4Jl0RKECZ87447bWKZPW-13" value="Добавить год" style="ellipse;whiteSpace=wrap;html=1;" parent="sFgRv1293873B7JfgZ-G-2" vertex="1">
          <mxGeometry x="486" y="80" width="86" height="68" as="geometry" />
        </mxCell>
        <mxCell id="4Jl0RKECZ87447bWKZPW-14" value="Добавить страну" style="ellipse;whiteSpace=wrap;html=1;" parent="sFgRv1293873B7JfgZ-G-2" vertex="1">
          <mxGeometry x="396" y="110" width="86" height="65.5" as="geometry" />
        </mxCell>
        <mxCell id="4Jl0RKECZ87447bWKZPW-15" value="Добавить рейтинг&lt;br&gt;" style="ellipse;whiteSpace=wrap;html=1;" parent="sFgRv1293873B7JfgZ-G-2" vertex="1">
          <mxGeometry x="556" y="20" width="86" height="68" as="geometry" />
        </mxCell>
        <mxCell id="-rvg3PqeVG6ff2hM17AL-2" value="" style="endArrow=classic;html=1;rounded=0;dashed=1;exitX=0.997;exitY=0.472;exitDx=0;exitDy=0;exitPerimeter=0;entryX=0;entryY=0.5;entryDx=0;entryDy=0;" parent="sFgRv1293873B7JfgZ-G-2" source="sFgRv1293873B7JfgZ-G-15" target="4Jl0RKECZ87447bWKZPW-12" edge="1">
          <mxGeometry width="50" height="50" relative="1" as="geometry">
            <mxPoint x="310" y="325" as="sourcePoint" />
            <mxPoint x="366" y="60" as="targetPoint" />
          </mxGeometry>
        </mxCell>
        <mxCell id="rg-fWagQI2_gAXItH6_G-3" value="&quot;include&quot;" style="edgeLabel;html=1;align=center;verticalAlign=middle;resizable=0;points=[];" parent="-rvg3PqeVG6ff2hM17AL-2" vertex="1" connectable="0">
          <mxGeometry x="-0.1351" y="4" relative="1" as="geometry">
            <mxPoint as="offset" />
          </mxGeometry>
        </mxCell>
        <mxCell id="-rvg3PqeVG6ff2hM17AL-12" value="" style="endArrow=classic;html=1;rounded=0;dashed=1;entryX=0;entryY=0.5;entryDx=0;entryDy=0;" parent="sFgRv1293873B7JfgZ-G-2" target="4Jl0RKECZ87447bWKZPW-13" edge="1">
          <mxGeometry width="50" height="50" relative="1" as="geometry">
            <mxPoint x="326" y="80" as="sourcePoint" />
            <mxPoint x="305" y="160.5" as="targetPoint" />
          </mxGeometry>
        </mxCell>
        <mxCell id="rg-fWagQI2_gAXItH6_G-4" value="&quot;include&quot;" style="edgeLabel;html=1;align=center;verticalAlign=middle;resizable=0;points=[];" parent="-rvg3PqeVG6ff2hM17AL-12" vertex="1" connectable="0">
          <mxGeometry x="-0.1633" y="-3" relative="1" as="geometry">
            <mxPoint as="offset" />
          </mxGeometry>
        </mxCell>
        <mxCell id="-rvg3PqeVG6ff2hM17AL-13" value="" style="endArrow=classic;html=1;rounded=0;dashed=1;exitX=1;exitY=0.5;exitDx=0;exitDy=0;entryX=0;entryY=0.5;entryDx=0;entryDy=0;" parent="sFgRv1293873B7JfgZ-G-2" source="sFgRv1293873B7JfgZ-G-15" target="4Jl0RKECZ87447bWKZPW-14" edge="1">
          <mxGeometry width="50" height="50" relative="1" as="geometry">
            <mxPoint x="385" y="223.75" as="sourcePoint" />
            <mxPoint x="310" y="131.75" as="targetPoint" />
          </mxGeometry>
        </mxCell>
        <mxCell id="rg-fWagQI2_gAXItH6_G-5" value="&quot;include&quot;" style="edgeLabel;html=1;align=center;verticalAlign=middle;resizable=0;points=[];" parent="-rvg3PqeVG6ff2hM17AL-13" vertex="1" connectable="0">
          <mxGeometry x="-0.3165" y="1" relative="1" as="geometry">
            <mxPoint as="offset" />
          </mxGeometry>
        </mxCell>
        <mxCell id="rg-fWagQI2_gAXItH6_G-18" value="Изменить имя" style="ellipse;whiteSpace=wrap;html=1;" parent="sFgRv1293873B7JfgZ-G-2" vertex="1">
          <mxGeometry x="506" y="210" width="86" height="65.5" as="geometry" />
        </mxCell>
        <mxCell id="rg-fWagQI2_gAXItH6_G-19" value="Изменить год" style="ellipse;whiteSpace=wrap;html=1;" parent="sFgRv1293873B7JfgZ-G-2" vertex="1">
          <mxGeometry x="572" y="260" width="86" height="68" as="geometry" />
        </mxCell>
        <mxCell id="rg-fWagQI2_gAXItH6_G-20" value="Изменить страну" style="ellipse;whiteSpace=wrap;html=1;" parent="sFgRv1293873B7JfgZ-G-2" vertex="1">
          <mxGeometry x="486" y="300" width="86" height="65.5" as="geometry" />
        </mxCell>
        <mxCell id="rg-fWagQI2_gAXItH6_G-21" value="Изменить рейтинг" style="ellipse;whiteSpace=wrap;html=1;" parent="sFgRv1293873B7JfgZ-G-2" vertex="1">
          <mxGeometry x="551" y="349.5" width="86" height="68" as="geometry" />
        </mxCell>
        <mxCell id="rg-fWagQI2_gAXItH6_G-22" value="" style="endArrow=classic;html=1;rounded=0;dashed=1;entryX=1;entryY=0.5;entryDx=0;entryDy=0;exitX=0.021;exitY=0.577;exitDx=0;exitDy=0;exitPerimeter=0;" parent="sFgRv1293873B7JfgZ-G-2" source="rg-fWagQI2_gAXItH6_G-18" target="sFgRv1293873B7JfgZ-G-17" edge="1">
          <mxGeometry width="50" height="50" relative="1" as="geometry">
            <mxPoint x="335" y="645" as="sourcePoint" />
            <mxPoint x="345" y="398" as="targetPoint" />
          </mxGeometry>
        </mxCell>
        <mxCell id="rg-fWagQI2_gAXItH6_G-23" value="&quot;extend&quot;" style="edgeLabel;html=1;align=center;verticalAlign=middle;resizable=0;points=[];" parent="rg-fWagQI2_gAXItH6_G-22" vertex="1" connectable="0">
          <mxGeometry x="-0.1351" y="4" relative="1" as="geometry">
            <mxPoint as="offset" />
          </mxGeometry>
        </mxCell>
        <mxCell id="rg-fWagQI2_gAXItH6_G-24" value="" style="endArrow=classic;html=1;rounded=0;dashed=1;exitX=0;exitY=0.5;exitDx=0;exitDy=0;" parent="sFgRv1293873B7JfgZ-G-2" source="rg-fWagQI2_gAXItH6_G-19" edge="1">
          <mxGeometry width="50" height="50" relative="1" as="geometry">
            <mxPoint x="408" y="486.5" as="sourcePoint" />
            <mxPoint x="315" y="300" as="targetPoint" />
          </mxGeometry>
        </mxCell>
        <mxCell id="rg-fWagQI2_gAXItH6_G-25" value="&quot;extend&quot;" style="edgeLabel;html=1;align=center;verticalAlign=middle;resizable=0;points=[];" parent="rg-fWagQI2_gAXItH6_G-24" vertex="1" connectable="0">
          <mxGeometry x="-0.1633" y="-3" relative="1" as="geometry">
            <mxPoint as="offset" />
          </mxGeometry>
        </mxCell>
        <mxCell id="rg-fWagQI2_gAXItH6_G-26" value="" style="endArrow=classic;html=1;rounded=0;dashed=1;entryX=1;entryY=0.5;entryDx=0;entryDy=0;exitX=0;exitY=0.5;exitDx=0;exitDy=0;" parent="sFgRv1293873B7JfgZ-G-2" source="rg-fWagQI2_gAXItH6_G-20" target="sFgRv1293873B7JfgZ-G-17" edge="1">
          <mxGeometry width="50" height="50" relative="1" as="geometry">
            <mxPoint x="410" y="543.75" as="sourcePoint" />
            <mxPoint x="345" y="398" as="targetPoint" />
          </mxGeometry>
        </mxCell>
        <mxCell id="rg-fWagQI2_gAXItH6_G-27" value="&quot;extend&quot;" style="edgeLabel;html=1;align=center;verticalAlign=middle;resizable=0;points=[];" parent="rg-fWagQI2_gAXItH6_G-26" vertex="1" connectable="0">
          <mxGeometry x="-0.3165" y="1" relative="1" as="geometry">
            <mxPoint as="offset" />
          </mxGeometry>
        </mxCell>
        <mxCell id="rg-fWagQI2_gAXItH6_G-28" value="" style="endArrow=classic;html=1;rounded=0;dashed=1;entryX=1;entryY=0.5;entryDx=0;entryDy=0;exitX=0;exitY=0.5;exitDx=0;exitDy=0;" parent="sFgRv1293873B7JfgZ-G-2" source="rg-fWagQI2_gAXItH6_G-21" target="sFgRv1293873B7JfgZ-G-17" edge="1">
          <mxGeometry width="50" height="50" relative="1" as="geometry">
            <mxPoint x="418.5" y="650" as="sourcePoint" />
            <mxPoint x="345" y="398" as="targetPoint" />
          </mxGeometry>
        </mxCell>
        <mxCell id="rg-fWagQI2_gAXItH6_G-29" value="&quot;extend&quot;" style="edgeLabel;html=1;align=center;verticalAlign=middle;resizable=0;points=[];" parent="rg-fWagQI2_gAXItH6_G-28" vertex="1" connectable="0">
          <mxGeometry x="-0.2779" y="-1" relative="1" as="geometry">
            <mxPoint as="offset" />
          </mxGeometry>
        </mxCell>
        <mxCell id="XtHj4lQT_K5RY9pHGdyH-53" value="Ввести id фильма" style="ellipse;whiteSpace=wrap;html=1;" parent="sFgRv1293873B7JfgZ-G-2" vertex="1">
          <mxGeometry x="386" y="180" width="86" height="65.5" as="geometry" />
        </mxCell>
        <mxCell id="XtHj4lQT_K5RY9pHGdyH-54" value="" style="endArrow=classic;html=1;rounded=0;dashed=1;exitX=1;exitY=0.5;exitDx=0;exitDy=0;entryX=0;entryY=0.5;entryDx=0;entryDy=0;" parent="sFgRv1293873B7JfgZ-G-2" source="sFgRv1293873B7JfgZ-G-16" target="XtHj4lQT_K5RY9pHGdyH-53" edge="1">
          <mxGeometry width="50" height="50" relative="1" as="geometry">
            <mxPoint x="280" y="100.5" as="sourcePoint" />
            <mxPoint x="356" y="165.5" as="targetPoint" />
          </mxGeometry>
        </mxCell>
        <mxCell id="XtHj4lQT_K5RY9pHGdyH-55" value="&quot;include&quot;" style="edgeLabel;html=1;align=center;verticalAlign=middle;resizable=0;points=[];" parent="XtHj4lQT_K5RY9pHGdyH-54" vertex="1" connectable="0">
          <mxGeometry x="-0.3165" y="1" relative="1" as="geometry">
            <mxPoint as="offset" />
          </mxGeometry>
        </mxCell>
        <mxCell id="XtHj4lQT_K5RY9pHGdyH-59" value="" style="endArrow=classic;html=1;rounded=0;dashed=1;exitX=1;exitY=0.5;exitDx=0;exitDy=0;entryX=0;entryY=0.5;entryDx=0;entryDy=0;" parent="sFgRv1293873B7JfgZ-G-2" target="XtHj4lQT_K5RY9pHGdyH-61" edge="1">
          <mxGeometry width="50" height="50" relative="1" as="geometry">
            <mxPoint x="310" y="403" as="sourcePoint" />
            <mxPoint x="391" y="375.5" as="targetPoint" />
          </mxGeometry>
        </mxCell>
        <mxCell id="XtHj4lQT_K5RY9pHGdyH-60" value="&quot;include&quot;" style="edgeLabel;html=1;align=center;verticalAlign=middle;resizable=0;points=[];" parent="XtHj4lQT_K5RY9pHGdyH-59" vertex="1" connectable="0">
          <mxGeometry x="-0.3165" y="1" relative="1" as="geometry">
            <mxPoint as="offset" />
          </mxGeometry>
        </mxCell>
        <mxCell id="XtHj4lQT_K5RY9pHGdyH-61" value="Ввести id фильма" style="ellipse;whiteSpace=wrap;html=1;" parent="sFgRv1293873B7JfgZ-G-2" vertex="1">
          <mxGeometry x="374.54" y="380" width="86" height="65.5" as="geometry" />
        </mxCell>
        <mxCell id="sFgRv1293873B7JfgZ-G-20" value="Поиск фильма" style="ellipse;whiteSpace=wrap;html=1;" parent="sFgRv1293873B7JfgZ-G-2" vertex="1">
          <mxGeometry x="197.73" y="482" width="120" height="80" as="geometry" />
        </mxCell>
        <mxCell id="XtHj4lQT_K5RY9pHGdyH-56" value="Ввести id фильма" style="ellipse;whiteSpace=wrap;html=1;" parent="sFgRv1293873B7JfgZ-G-2" vertex="1">
          <mxGeometry x="382.27000000000004" y="499.5" width="86" height="65.5" as="geometry" />
        </mxCell>
        <mxCell id="XtHj4lQT_K5RY9pHGdyH-57" value="" style="endArrow=classic;html=1;rounded=0;dashed=1;exitX=1;exitY=0.5;exitDx=0;exitDy=0;entryX=0;entryY=0.5;entryDx=0;entryDy=0;" parent="sFgRv1293873B7JfgZ-G-2" source="sFgRv1293873B7JfgZ-G-20" target="XtHj4lQT_K5RY9pHGdyH-56" edge="1">
          <mxGeometry width="50" height="50" relative="1" as="geometry">
            <mxPoint x="322.73" y="482" as="sourcePoint" />
            <mxPoint x="398.73" y="495" as="targetPoint" />
          </mxGeometry>
        </mxCell>
        <mxCell id="XtHj4lQT_K5RY9pHGdyH-58" value="&quot;include&quot;" style="edgeLabel;html=1;align=center;verticalAlign=middle;resizable=0;points=[];" parent="XtHj4lQT_K5RY9pHGdyH-57" vertex="1" connectable="0">
          <mxGeometry x="-0.3165" y="1" relative="1" as="geometry">
            <mxPoint as="offset" />
          </mxGeometry>
        </mxCell>
        <mxCell id="4Jl0RKECZ87447bWKZPW-1" value="Film" style="swimlane;whiteSpace=wrap;html=1;startSize=20;" parent="1" vertex="1">
          <mxGeometry x="-60" y="820" width="200" height="250" as="geometry" />
        </mxCell>
        <mxCell id="4Jl0RKECZ87447bWKZPW-2" value="- name: string&lt;br&gt;- year: int&lt;br&gt;- type: string&lt;br&gt;- rating: int&lt;br&gt;- country: string&lt;br&gt;- className: string&lt;br&gt;- classNumber: int" style="rounded=0;whiteSpace=wrap;html=1;align=left;" parent="4Jl0RKECZ87447bWKZPW-1" vertex="1">
          <mxGeometry y="20" width="200" height="100" as="geometry" />
        </mxCell>
        <mxCell id="4Jl0RKECZ87447bWKZPW-3" value="+ AddName(): bool&lt;br&gt;+ AddYear(): bool&lt;br&gt;+ AddType(): bool&lt;br&gt;+ AddRating(): bool&lt;br&gt;+ AddCountry(): bool&lt;br&gt;+ Edit(): void&lt;br&gt;+ SeeInformation(): string" style="whiteSpace=wrap;html=1;align=left;" parent="4Jl0RKECZ87447bWKZPW-1" vertex="1">
          <mxGeometry y="120" width="200" height="130" as="geometry" />
        </mxCell>
        <mxCell id="4Jl0RKECZ87447bWKZPW-4" value="Catalog" style="swimlane;whiteSpace=wrap;html=1;startSize=20;" parent="1" vertex="1">
          <mxGeometry x="256" y="820" width="200" height="140" as="geometry" />
        </mxCell>
        <mxCell id="4Jl0RKECZ87447bWKZPW-5" value="- filmList: List&amp;lt;Film&amp;gt;" style="rounded=0;whiteSpace=wrap;html=1;align=left;" parent="4Jl0RKECZ87447bWKZPW-4" vertex="1">
          <mxGeometry y="20" width="200" height="20" as="geometry" />
        </mxCell>
        <mxCell id="4Jl0RKECZ87447bWKZPW-6" value="+ Film()&lt;br&gt;+ AddFilm(Film film): void&lt;br&gt;+ DeleteFilm(int id): void&lt;br&gt;+ FindFilm(): void&lt;br&gt;+ SeeAllFilms(): void" style="whiteSpace=wrap;html=1;align=left;" parent="4Jl0RKECZ87447bWKZPW-4" vertex="1">
          <mxGeometry y="40" width="200" height="100" as="geometry" />
        </mxCell>
        <mxCell id="QB16fKz3O67nD3YnbzZ0-1" value="Form1" style="swimlane;whiteSpace=wrap;html=1;startSize=20;" parent="1" vertex="1">
          <mxGeometry x="590" y="810" width="340" height="290" as="geometry" />
        </mxCell>
        <mxCell id="QB16fKz3O67nD3YnbzZ0-2" value="- currentId: int" style="rounded=0;whiteSpace=wrap;html=1;align=left;" parent="QB16fKz3O67nD3YnbzZ0-1" vertex="1">
          <mxGeometry y="20" width="340" height="20" as="geometry" />
        </mxCell>
        <mxCell id="QB16fKz3O67nD3YnbzZ0-3" value="+ Form1()&lt;br&gt;- AddButtonClick(object sender, EventArgs e): void&lt;br&gt;- AcceptInputButtonClick(object sender, EventArgs e): void&lt;br&gt;- EditButtonClick(object sender, EventArgs e): void&lt;br&gt;- AcceptIdButtonClick(object sender, EventArgs e): void&lt;br&gt;- SeeFilmsButtonClick(object sender, EventArgs e): void&lt;br&gt;- DeleteButtonClick(object sender, EventArgs e): void&lt;br&gt;- AcceptEditButtonClick(object sender, EventArgs e): void&lt;br&gt;+ HideInput(): void&lt;br&gt;+ ShowAddInput(): void&lt;br&gt;+ ShowIdInput(): void&lt;br&gt;+ ShowEditInput(): void&lt;br&gt;- Form1_Load(object sender, EventArgs e)&lt;br&gt;+ AddFilm(): bool&lt;br&gt;+ EditFilm(Film film): bool&lt;br&gt;+ GetFilm(int id): void" style="whiteSpace=wrap;html=1;align=left;" parent="QB16fKz3O67nD3YnbzZ0-1" vertex="1">
          <mxGeometry y="40" width="340" height="250" as="geometry" />
        </mxCell>
        <mxCell id="CCcvDffA3l0ZBB2aKqJH-1" value="" style="endArrow=diamondThin;endFill=0;endSize=24;html=1;rounded=0;entryX=0;entryY=0;entryDx=0;entryDy=0;exitX=1;exitY=0;exitDx=0;exitDy=0;" parent="1" source="4Jl0RKECZ87447bWKZPW-2" target="4Jl0RKECZ87447bWKZPW-5" edge="1">
          <mxGeometry width="160" relative="1" as="geometry">
            <mxPoint x="149" y="1120" as="sourcePoint" />
            <mxPoint x="309" y="1120" as="targetPoint" />
          </mxGeometry>
        </mxCell>
        <mxCell id="CCcvDffA3l0ZBB2aKqJH-2" value="Static" style="swimlane;whiteSpace=wrap;html=1;startSize=20;" parent="1" vertex="1">
          <mxGeometry x="250" y="1010" width="210" height="90" as="geometry" />
        </mxCell>
        <mxCell id="CCcvDffA3l0ZBB2aKqJH-3" value="+ classCounter: int" style="rounded=0;whiteSpace=wrap;html=1;align=left;" parent="CCcvDffA3l0ZBB2aKqJH-2" vertex="1">
          <mxGeometry y="20" width="210" height="20" as="geometry" />
        </mxCell>
        <mxCell id="CCcvDffA3l0ZBB2aKqJH-4" value="+ InRange(int min, int max, int a): bool" style="whiteSpace=wrap;html=1;align=left;" parent="CCcvDffA3l0ZBB2aKqJH-2" vertex="1">
          <mxGeometry y="40" width="210" height="50" as="geometry" />
        </mxCell>
        <mxCell id="CCcvDffA3l0ZBB2aKqJH-6" value="" style="endArrow=diamondThin;endFill=0;endSize=24;html=1;rounded=0;entryX=0.002;entryY=0.025;entryDx=0;entryDy=0;exitX=1;exitY=0.25;exitDx=0;exitDy=0;entryPerimeter=0;" parent="1" source="4Jl0RKECZ87447bWKZPW-4" target="QB16fKz3O67nD3YnbzZ0-3" edge="1">
          <mxGeometry width="160" relative="1" as="geometry">
            <mxPoint x="448.54" y="790" as="sourcePoint" />
            <mxPoint x="564.54" y="790" as="targetPoint" />
          </mxGeometry>
        </mxCell>
        <mxCell id="SbSzIW5NBei4sigziNw8-1" value="Program" style="swimlane;whiteSpace=wrap;html=1;startSize=20;" vertex="1" parent="1">
          <mxGeometry x="800" y="700" width="210" height="60" as="geometry" />
        </mxCell>
        <mxCell id="SbSzIW5NBei4sigziNw8-3" value="- Main(): void" style="whiteSpace=wrap;html=1;align=left;" vertex="1" parent="SbSzIW5NBei4sigziNw8-1">
          <mxGeometry y="20" width="210" height="40" as="geometry" />
        </mxCell>
        <mxCell id="SbSzIW5NBei4sigziNw8-5" value="" style="endArrow=diamondThin;endFill=1;endSize=24;html=1;rounded=0;entryX=0.5;entryY=1;entryDx=0;entryDy=0;exitX=0.5;exitY=0;exitDx=0;exitDy=0;" edge="1" parent="1" source="QB16fKz3O67nD3YnbzZ0-1" target="SbSzIW5NBei4sigziNw8-1">
          <mxGeometry width="160" relative="1" as="geometry">
            <mxPoint x="440.42" y="960.25" as="sourcePoint" />
            <mxPoint x="570.42" y="972.25" as="targetPoint" />
          </mxGeometry>
        </mxCell>
        <mxCell id="SbSzIW5NBei4sigziNw8-6" value="" style="endArrow=diamondThin;endFill=0;endSize=24;html=1;rounded=0;entryX=0;entryY=0.75;entryDx=0;entryDy=0;exitX=1;exitY=0;exitDx=0;exitDy=0;" edge="1" parent="1" source="CCcvDffA3l0ZBB2aKqJH-4" target="QB16fKz3O67nD3YnbzZ0-3">
          <mxGeometry width="160" relative="1" as="geometry">
            <mxPoint x="455.32" y="954.38" as="sourcePoint" />
            <mxPoint x="590.32" y="955.38" as="targetPoint" />
          </mxGeometry>
        </mxCell>
      </root>
    </mxGraphModel>
  </diagram>
</mxfile>
